<?xml version="1.0" encoding="UTF-8" standalone="no"?>
<svg
   xmlns:dc="http://purl.org/dc/elements/1.1/"
   xmlns:cc="http://creativecommons.org/ns#"
   xmlns:rdf="http://www.w3.org/1999/02/22-rdf-syntax-ns#"
   xmlns:svg="http://www.w3.org/2000/svg"
   xmlns="http://www.w3.org/2000/svg"
   viewBox="0 0 1052.3625 744.09998"
   height="744.09998"
   width="1052.3625"
   xml:space="preserve"
   version="1.1"
   id="svg2"><metadata
     id="metadata8"><rdf:RDF><cc:Work
         rdf:about=""><dc:format>image/svg+xml</dc:format><dc:type
           rdf:resource="http://purl.org/dc/dcmitype/StillImage" /></cc:Work></rdf:RDF></metadata><defs
     id="defs6"><clipPath
       id="clipPath16"
       clipPathUnits="userSpaceOnUse"><path
         id="path18"
         d="m 0,595.28 841.89,0 L 841.89,0 0,0 0,595.28 Z" /></clipPath></defs><g
     transform="matrix(1.25,0,0,-1.25,0,744.1)"
     id="g10"><g
       id="g12"><g
         clip-path="url(#clipPath16)"
         id="g14"><g
           transform="translate(196.7029,453.5993)"
           id="g20"><path
             id="path22"
             style="fill:#ffffff;fill-opacity:1;fill-rule:nonzero;stroke:none"
             d="m 0,0 c 0,-37.146 -30.113,-67.259 -67.259,-67.259 -37.147,0 -67.26,30.113 -67.26,67.259 0,37.146 30.113,67.259 67.26,67.259 C -30.113,67.259 0,37.146 0,0" /></g><g
           transform="translate(196.7029,453.5993)"
           id="g24"><path
             id="path26"
             style="fill:none;stroke:#969696;stroke-width:1;stroke-linecap:butt;stroke-linejoin:miter;stroke-miterlimit:10;stroke-dasharray:none;stroke-opacity:1"
             d="m 0,0 c 0,-37.146 -30.113,-67.259 -67.259,-67.259 -37.147,0 -67.26,30.113 -67.26,67.259 0,37.146 30.113,67.259 67.26,67.259 C -30.113,67.259 0,37.146 0,0 Z" /></g><g
           transform="translate(196.7029,307.5993)"
           id="g28"><path
             id="path30"
             style="fill:#ffffff;fill-opacity:1;fill-rule:nonzero;stroke:none"
             d="m 0,0 c 0,-37.146 -30.113,-67.259 -67.259,-67.259 -37.147,0 -67.26,30.113 -67.26,67.259 0,37.146 30.113,67.259 67.26,67.259 C -30.113,67.259 0,37.146 0,0" /></g><g
           transform="translate(196.7029,307.5993)"
           id="g32"><path
             id="path34"
             style="fill:none;stroke:#969696;stroke-width:1;stroke-linecap:butt;stroke-linejoin:miter;stroke-miterlimit:10;stroke-dasharray:none;stroke-opacity:1"
             d="m 0,0 c 0,-37.146 -30.113,-67.259 -67.259,-67.259 -37.147,0 -67.26,30.113 -67.26,67.259 0,37.146 30.113,67.259 67.26,67.259 C -30.113,67.259 0,37.146 0,0 Z" /></g><g
           transform="translate(341.1489,307.5993)"
           id="g36"><path
             id="path38"
             style="fill:#ffffff;fill-opacity:1;fill-rule:nonzero;stroke:none"
             d="m 0,0 c 0,-37.146 -30.113,-67.259 -67.259,-67.259 -37.147,0 -67.26,30.113 -67.26,67.259 0,37.146 30.113,67.259 67.26,67.259 C -30.113,67.259 0,37.146 0,0" /></g><g
           transform="translate(341.1489,307.5993)"
           id="g40"><path
             id="path42"
             style="fill:none;stroke:#969696;stroke-width:1;stroke-linecap:butt;stroke-linejoin:miter;stroke-miterlimit:10;stroke-dasharray:none;stroke-opacity:1"
             d="m 0,0 c 0,-37.146 -30.113,-67.259 -67.259,-67.259 -37.147,0 -67.26,30.113 -67.26,67.259 0,37.146 30.113,67.259 67.26,67.259 C -30.113,67.259 0,37.146 0,0 Z" /></g><g
           transform="translate(485.5949,307.5993)"
           id="g44"><path
             id="path46"
             style="fill:#ffffff;fill-opacity:1;fill-rule:nonzero;stroke:none"
             d="m 0,0 c 0,-37.146 -30.113,-67.259 -67.259,-67.259 -37.147,0 -67.26,30.113 -67.26,67.259 0,37.146 30.113,67.259 67.26,67.259 C -30.113,67.259 0,37.146 0,0" /></g><g
           transform="translate(485.5949,307.5993)"
           id="g48"><path
             id="path50"
             style="fill:none;stroke:#969696;stroke-width:1;stroke-linecap:butt;stroke-linejoin:miter;stroke-miterlimit:10;stroke-dasharray:none;stroke-opacity:1"
             d="m 0,0 c 0,-37.146 -30.113,-67.259 -67.259,-67.259 -37.147,0 -67.26,30.113 -67.26,67.259 0,37.146 30.113,67.259 67.26,67.259 C -30.113,67.259 0,37.146 0,0 Z" /></g><g
           transform="translate(630.0409,307.5993)"
           id="g52"><path
             id="path54"
             style="fill:#ffffff;fill-opacity:1;fill-rule:nonzero;stroke:none"
             d="m 0,0 c 0,-37.146 -30.113,-67.259 -67.259,-67.259 -37.147,0 -67.26,30.113 -67.26,67.259 0,37.146 30.113,67.259 67.26,67.259 C -30.113,67.259 0,37.146 0,0" /></g><g
           transform="translate(630.0409,307.5993)"
           id="g56"><path
             id="path58"
             style="fill:none;stroke:#969696;stroke-width:1;stroke-linecap:butt;stroke-linejoin:miter;stroke-miterlimit:10;stroke-dasharray:none;stroke-opacity:1"
             d="m 0,0 c 0,-37.146 -30.113,-67.259 -67.259,-67.259 -37.147,0 -67.26,30.113 -67.26,67.259 0,37.146 30.113,67.259 67.26,67.259 C -30.113,67.259 0,37.146 0,0 Z" /></g><g
           transform="translate(774.4869,307.5993)"
           id="g60"><path
             id="path62"
             style="fill:#ffffff;fill-opacity:1;fill-rule:nonzero;stroke:none"
             d="m 0,0 c 0,-37.146 -30.113,-67.259 -67.259,-67.259 -37.147,0 -67.259,30.113 -67.259,67.259 0,37.146 30.112,67.259 67.259,67.259 C -30.113,67.259 0,37.146 0,0" /></g><g
           transform="translate(774.4869,307.5993)"
           id="g64"><path
             id="path66"
             style="fill:none;stroke:#969696;stroke-width:1;stroke-linecap:butt;stroke-linejoin:miter;stroke-miterlimit:10;stroke-dasharray:none;stroke-opacity:1"
             d="m 0,0 c 0,-37.146 -30.113,-67.259 -67.259,-67.259 -37.147,0 -67.259,30.113 -67.259,67.259 0,37.146 30.112,67.259 67.259,67.259 C -30.113,67.259 0,37.146 0,0 Z" /></g><g
           transform="translate(341.1489,453.5993)"
           id="g68"><path
             id="path70"
             style="fill:#ffffff;fill-opacity:1;fill-rule:nonzero;stroke:none"
             d="m 0,0 c 0,-37.146 -30.113,-67.259 -67.259,-67.259 -37.147,0 -67.26,30.113 -67.26,67.259 0,37.146 30.113,67.259 67.26,67.259 C -30.113,67.259 0,37.146 0,0" /></g><g
           transform="translate(341.1489,453.5993)"
           id="g72"><path
             id="path74"
             style="fill:none;stroke:#969696;stroke-width:1;stroke-linecap:butt;stroke-linejoin:miter;stroke-miterlimit:10;stroke-dasharray:none;stroke-opacity:1"
             d="m 0,0 c 0,-37.146 -30.113,-67.259 -67.259,-67.259 -37.147,0 -67.26,30.113 -67.26,67.259 0,37.146 30.113,67.259 67.26,67.259 C -30.113,67.259 0,37.146 0,0 Z" /></g><g
           transform="translate(485.5949,453.5993)"
           id="g76"><path
             id="path78"
             style="fill:#ffffff;fill-opacity:1;fill-rule:nonzero;stroke:none"
             d="m 0,0 c 0,-37.146 -30.113,-67.259 -67.259,-67.259 -37.147,0 -67.26,30.113 -67.26,67.259 0,37.146 30.113,67.259 67.26,67.259 C -30.113,67.259 0,37.146 0,0" /></g><g
           transform="translate(485.5949,453.5993)"
           id="g80"><path
             id="path82"
             style="fill:none;stroke:#969696;stroke-width:1;stroke-linecap:butt;stroke-linejoin:miter;stroke-miterlimit:10;stroke-dasharray:none;stroke-opacity:1"
             d="m 0,0 c 0,-37.146 -30.113,-67.259 -67.259,-67.259 -37.147,0 -67.26,30.113 -67.26,67.259 0,37.146 30.113,67.259 67.26,67.259 C -30.113,67.259 0,37.146 0,0 Z" /></g><g
           transform="translate(630.0409,453.5993)"
           id="g84"><path
             id="path86"
             style="fill:#ffffff;fill-opacity:1;fill-rule:nonzero;stroke:none"
             d="m 0,0 c 0,-37.146 -30.113,-67.259 -67.259,-67.259 -37.147,0 -67.26,30.113 -67.26,67.259 0,37.146 30.113,67.259 67.26,67.259 C -30.113,67.259 0,37.146 0,0" /></g><g
           transform="translate(630.0409,453.5993)"
           id="g88"><path
             id="path90"
             style="fill:none;stroke:#969696;stroke-width:1;stroke-linecap:butt;stroke-linejoin:miter;stroke-miterlimit:10;stroke-dasharray:none;stroke-opacity:1"
             d="m 0,0 c 0,-37.146 -30.113,-67.259 -67.259,-67.259 -37.147,0 -67.26,30.113 -67.26,67.259 0,37.146 30.113,67.259 67.26,67.259 C -30.113,67.259 0,37.146 0,0 Z" /></g><g
           transform="translate(774.4869,453.5993)"
           id="g92"><path
             id="path94"
             style="fill:#ffffff;fill-opacity:1;fill-rule:nonzero;stroke:none"
             d="m 0,0 c 0,-37.146 -30.113,-67.259 -67.259,-67.259 -37.147,0 -67.259,30.113 -67.259,67.259 0,37.146 30.112,67.259 67.259,67.259 C -30.113,67.259 0,37.146 0,0" /></g><g
           transform="translate(774.4869,453.5993)"
           id="g96"><path
             id="path98"
             style="fill:none;stroke:#969696;stroke-width:1;stroke-linecap:butt;stroke-linejoin:miter;stroke-miterlimit:10;stroke-dasharray:none;stroke-opacity:1"
             d="m 0,0 c 0,-37.146 -30.113,-67.259 -67.259,-67.259 -37.147,0 -67.259,30.113 -67.259,67.259 0,37.146 30.112,67.259 67.259,67.259 C -30.113,67.259 0,37.146 0,0 Z" /></g><g
           transform="translate(737.6276,456.4166)"
           id="g100"><path
             id="path102"
             style="fill:#969696;fill-opacity:1;fill-rule:nonzero;stroke:none"
             d="m 0,0 -9.535,9.535 0,11.014 c 0,1.991 -1.613,3.605 -3.608,3.605 -1.99,0 -3.604,-1.614 -3.604,-3.605 l 0,-3.803 -7.099,7.1 c -3.51,3.508 -9.612,3.502 -13.114,-0.006 L -60.8,0 c -1.408,-1.41 -1.408,-3.692 0,-5.1 1.408,-1.41 3.694,-1.41 5.101,0 l 23.838,23.84 c 0.777,0.773 2.145,0.773 2.918,0.003 L -5.101,-5.1 c 0.707,-0.705 1.628,-1.055 2.55,-1.055 0.923,0 1.846,0.351 2.551,1.055 1.408,1.408 1.408,3.69 0,5.1" /></g><g
           transform="translate(708.48,468.313)"
           id="g104"><path
             id="path106"
             style="fill:#969696;fill-opacity:1;fill-rule:nonzero;stroke:none"
             d="m 0,0 c -0.693,0.692 -1.814,0.692 -2.505,0 l -20.969,-20.964 c -0.331,-0.33 -0.519,-0.782 -0.519,-1.254 l 0,-15.29 c 0,-3.588 2.909,-6.497 6.497,-6.497 l 10.382,0 0,16.079 11.721,0 0,-16.079 10.382,0 c 3.588,0 6.497,2.909 6.497,6.497 l 0,15.29 c 0,0.472 -0.186,0.924 -0.519,1.254 L 0,0 Z" /></g><g
           transform="translate(283.6967,451.9485)"
           id="g108"><path
             id="path110"
             style="fill:#969696;fill-opacity:1;fill-rule:nonzero;stroke:none"
             d="m 0,0 -14.489,-7.573 c -0.324,-0.169 -0.678,-0.253 -1.032,-0.253 -0.401,0 -0.8,0.108 -1.154,0.322 -0.667,0.404 -1.074,1.127 -1.074,1.906 l 0,15.097 c 0,0.777 0.406,1.499 1.071,1.903 0.666,0.405 1.493,0.432 2.184,0.073 L -0.005,3.952 C 0.732,3.569 1.195,2.808 1.196,1.978 1.197,1.147 0.736,0.385 0,0 m 22.032,21.78 c -2.493,2.964 -7.095,4.172 -15.885,4.172 l -31.908,0 c -8.992,0 -13.672,-1.286 -16.156,-4.441 -2.421,-3.077 -2.421,-7.609 -2.421,-13.882 l 0,-11.957 c 0,-12.152 2.873,-18.323 18.577,-18.323 l 31.908,0 c 7.622,0 11.846,1.067 14.579,3.682 2.802,2.682 3.998,7.061 3.998,14.641 l 0,11.957 c 0,6.615 -0.187,11.175 -2.692,14.151" /></g><g
           transform="translate(410.6145,471.4544)"
           id="g112"><path
             id="path114"
             style="fill:#969696;fill-opacity:1;fill-rule:nonzero;stroke:none"
             d="m 0,0 0,-8.025 -5.879,0 0,-9.813 5.879,0 0,-29.161 12.077,0 0,29.16 8.105,0 c 0,0 0.759,4.705 1.127,9.85 l -9.186,0 0,6.71 c 0,1.003 1.317,2.351 2.618,2.351 l 6.581,0 0,10.216 -8.947,0 C -0.299,11.289 0,1.466 0,0" /></g><g
           transform="translate(153.2104,440.6529)"
           id="g116"><path
             id="path118"
             style="fill:#969696;fill-opacity:1;fill-rule:nonzero;stroke:none"
             d="m 0,0 c 0,-5.966 -4.854,-10.82 -10.82,-10.82 l -25.894,0 c -5.966,0 -10.819,4.854 -10.819,10.82 l 0,25.893 c 0,5.966 4.853,10.82 10.819,10.82 l 25.893,0 C -4.854,36.713 0,31.859 0,25.893 L 0,0 Z m -10.821,41.84 -25.893,0 c -8.793,0 -15.946,-7.154 -15.946,-15.947 L -52.66,0 c 0,-8.793 7.153,-15.947 15.946,-15.947 l 25.893,0 c 8.794,0 15.948,7.154 15.948,15.947 l 0,25.893 c 0,8.793 -7.154,15.947 -15.948,15.947" /></g><g
           transform="translate(129.4436,443.8365)"
           id="g120"><path
             id="path122"
             style="fill:#969696;fill-opacity:1;fill-rule:nonzero;stroke:none"
             d="m 0,0 c -5.383,0 -9.763,4.379 -9.763,9.762 0,5.384 4.379,9.764 9.763,9.764 5.384,0 9.763,-4.38 9.763,-9.764 C 9.763,4.379 5.383,0 0,0 m 0,24.652 c -8.211,0 -14.89,-6.679 -14.89,-14.89 0,-8.21 6.679,-14.89 14.89,-14.89 8.211,0 14.89,6.68 14.89,14.89 0,8.211 -6.679,14.89 -14.89,14.89" /></g><g
           transform="translate(144.9584,472.8364)"
           id="g124"><path
             id="path126"
             style="fill:#969696;fill-opacity:1;fill-rule:nonzero;stroke:none"
             d="M 0,0 C -0.988,0 -1.958,-0.4 -2.656,-1.101 -3.357,-1.798 -3.76,-2.769 -3.76,-3.76 c 0,-0.988 0.403,-1.959 1.104,-2.659 0.697,-0.698 1.668,-1.101 2.656,-1.101 0.991,0 1.959,0.403 2.659,1.101 0.701,0.7 1.101,1.671 1.101,2.659 0,0.991 -0.4,1.962 -1.101,2.659 C 1.962,-0.4 0.991,0 0,0" /></g><g
           transform="translate(594.6199,473.3414)"
           id="g128"><path
             id="path130"
             style="fill:#969696;fill-opacity:1;fill-rule:nonzero;stroke:none"
             d="m 0,0 c -2.344,-1.038 -4.858,-1.743 -7.5,-2.057 2.697,1.615 4.762,4.178 5.741,7.222 -2.53,-1.496 -5.324,-2.583 -8.3,-3.172 -2.384,2.543 -5.774,4.127 -9.534,4.127 -7.214,0 -13.063,-5.849 -13.063,-13.06 0,-1.022 0.115,-2.021 0.338,-2.976 -10.855,0.545 -20.48,5.746 -26.922,13.648 -1.126,-1.926 -1.767,-4.17 -1.767,-6.565 0,-4.532 2.308,-8.531 5.81,-10.871 -2.141,0.072 -4.155,0.661 -5.917,1.64 l 0,-0.164 c 0,-6.326 4.504,-11.606 10.477,-12.808 -1.095,-0.295 -2.248,-0.458 -3.442,-0.458 -0.844,0 -1.659,0.084 -2.459,0.243 1.663,-5.193 6.486,-8.969 12.2,-9.072 -4.469,-3.502 -10.103,-5.583 -16.223,-5.583 -1.054,0 -2.093,0.064 -3.116,0.179 5.782,-3.712 12.646,-5.877 20.023,-5.877 24.029,0 37.164,19.903 37.164,37.164 l -0.044,1.691 C -3.967,-4.918 -1.747,-2.618 0,0" /></g><g
           transform="translate(141.1077,334.8581)"
           id="g132"><path
             id="path134"
             style="fill:#969696;fill-opacity:1;fill-rule:nonzero;stroke:none"
             d="m 0,0 -23.329,0 c -1.567,0 -2.837,-1.262 -2.837,-2.821 l 0,-23.136 c 0,-1.558 1.27,-2.82 2.837,-2.82 l 10.756,0 c -0.074,-2.751 -1.226,-5.747 -2.89,-8.404 -1.873,-2.99 -5.864,-6.302 -5.901,-6.33 -0.314,-0.302 -0.544,-0.65 -0.549,-1.134 -0.004,-0.368 0.186,-0.653 0.4,-0.954 l 7.501,-8.41 c 0,0 0.364,-0.382 0.666,-0.455 0.339,-0.08 0.723,-0.091 0.99,0.114 12.989,9.988 14.865,22.513 15.191,29.291 10e-4,0.04 0.002,22.238 0.002,22.238 C 2.837,-1.262 1.567,0 0,0" /></g><g
           transform="translate(278.3332,314.2824)"
           id="g136"><path
             id="path138"
             style="fill:#969696;fill-opacity:1;fill-rule:nonzero;stroke:none"
             d="m 0,0 c -1.628,0 -2.949,-1.32 -2.949,-2.948 0,-1.629 1.321,-2.95 2.949,-2.95 1.628,0 2.948,1.321 2.948,2.95 C 2.948,-1.32 1.628,0 0,0" /></g><g
           transform="translate(303.2074,305.0038)"
           id="g140"><path
             id="path142"
             style="fill:#969696;fill-opacity:1;fill-rule:nonzero;stroke:none"
             d="m 0,0 c 0,-7.24 -6.705,-7.169 -6.705,-7.169 l -1.783,0 0,4.066 1.105,0 c 3.247,0 2.925,3.352 2.925,3.352 l 0,1.071 c -1.426,-1.854 -4.03,-1.748 -4.03,-1.748 -6.385,0 -6.313,6.807 -6.313,6.807 0,7.306 6.492,7.032 6.492,7.032 2.532,0 3.851,-1.747 3.851,-1.747 l 0,1.283 4.458,0 L 0,0 Z m -17.119,6.33 c 0,-6.973 -7.757,-6.985 -7.757,-6.985 -7.826,0 -7.581,6.985 -7.581,6.985 0,7.08 7.581,7.081 7.581,7.081 8.01,0 7.757,-7.081 7.757,-7.081 m -18.571,5.856 0,-12.363 -4.423,0 0,11.317 c 0,3.9 -2.094,3.805 -2.094,3.805 l 0,4.423 c 6.706,0 6.517,-7.182 6.517,-7.182 M -50.148,-0.655 c -2.76,0 -3.853,1.975 -3.853,1.975 l 0,-1.497 -4.637,0 0,19.117 4.59,0 0,-7.276 c 1.855,1.806 3.9,1.806 3.9,1.806 6.229,0 6.467,-6.991 6.467,-6.991 0,-6.896 -6.467,-7.134 -6.467,-7.134 m 46.468,34.776 -51.276,0 c -6.538,0 -11.837,-5.319 -11.837,-11.88 l 0,-28.182 c 0,-6.561 5.299,-11.88 11.837,-11.88 l 17.662,0 6.028,-9.815 c 0,0 0.065,-0.116 0.196,-0.278 0.353,-0.604 1.002,-1.016 1.751,-1.016 0.746,0 1.391,0.406 1.746,1.003 0.151,0.178 0.203,0.293 0.203,0.293 l 6.028,9.813 17.662,0 c 6.537,0 11.838,5.319 11.838,11.88 l 0,28.182 c 0,6.561 -5.301,11.88 -11.838,11.88" /></g><g
           transform="translate(296.0065,314.2824)"
           id="g144"><path
             id="path146"
             style="fill:#969696;fill-opacity:1;fill-rule:nonzero;stroke:none"
             d="m 0,0 c -1.629,0 -2.948,-1.32 -2.948,-2.948 0,-1.629 1.319,-2.95 2.948,-2.95 1.628,0 2.948,1.321 2.948,2.95 C 2.948,-1.32 1.628,0 0,0" /></g><g
           transform="translate(252.0492,314.2824)"
           id="g148"><path
             id="path150"
             style="fill:#969696;fill-opacity:1;fill-rule:nonzero;stroke:none"
             d="m 0,0 c -1.628,0 -2.949,-1.32 -2.949,-2.948 0,-1.629 1.321,-2.95 2.949,-2.95 1.628,0 2.948,1.321 2.948,2.95 C 2.948,-1.32 1.628,0 0,0" /></g><g
           transform="translate(448.5351,323.1456)"
           id="g152"><path
             id="path154"
             style="fill:#969696;fill-opacity:1;fill-rule:nonzero;stroke:none"
             d="m 0,0 c -0.481,1.689 -1.191,3.323 -2.109,4.852 -0.913,1.525 -1.983,2.878 -3.176,4.02 -3.238,3.166 -8.141,4.771 -14.574,4.771 l -13.645,0 c -2.432,0 -4.346,-0.687 -5.69,-2.043 -1.367,-1.379 -2.032,-3.237 -2.032,-5.68 l 0,-43.636 c 0,-2.002 0.565,-3.643 1.725,-5.021 1.155,-1.343 2.664,-1.999 4.615,-1.999 1.966,0 3.458,0.649 4.558,1.986 1.108,1.353 1.669,3.045 1.669,5.034 l 0,40.457 7.925,0 c 2.389,0 4.398,-0.717 5.971,-2.127 1.574,-1.423 2.439,-3.364 2.572,-5.769 0,-2.633 -0.771,-4.734 -2.292,-6.269 -1.645,-1.644 -3.921,-2.443 -6.959,-2.443 l -4.068,0 0,-10.845 7.405,0 c 6.286,0 11.149,2.04 14.453,6.063 2.899,3.451 4.367,8.009 4.367,13.554 C 0.715,-3.412 0.475,-1.698 0,0" /></g><g
           transform="translate(389.1626,307.868)"
           id="g156"><path
             id="path158"
             style="fill:#969696;fill-opacity:1;fill-rule:nonzero;stroke:none"
             d="m 0,0 c -1.172,-0.972 -1.741,-2.248 -1.741,-3.905 0,-1.727 0.561,-3.032 1.714,-3.991 1.162,-0.979 2.64,-1.471 4.392,-1.471 l 10.942,0 0,10.838 -10.942,0 C 2.623,1.471 1.196,0.991 0,0" /></g><g
           transform="translate(549.7707,327.8861)"
           id="g160"><path
             id="path162"
             style="fill:#969696;fill-opacity:1;fill-rule:nonzero;stroke:none"
             d="m 0,0 c 0,-4.681 -3.797,-8.478 -8.487,-8.478 -4.685,0 -8.483,3.797 -8.483,8.478 0,4.69 3.798,8.487 8.483,8.487 C -3.797,8.487 0,4.69 0,0" /></g><g
           transform="translate(571.2654,327.8861)"
           id="g164"><path
             id="path166"
             style="fill:#969696;fill-opacity:1;fill-rule:nonzero;stroke:none"
             d="m 0,0 c 0,-4.681 -3.797,-8.478 -8.485,-8.478 -4.685,0 -8.482,3.797 -8.482,8.478 0,4.69 3.797,8.487 8.482,8.487 C -3.797,8.487 0,4.69 0,0" /></g><g
           transform="translate(571.2654,307.6036)"
           id="g168"><path
             id="path170"
             style="fill:#969696;fill-opacity:1;fill-rule:nonzero;stroke:none"
             d="m 0,0 c 0,-4.69 -3.797,-8.487 -8.485,-8.487 -4.685,0 -8.482,3.797 -8.482,8.487 0,4.69 3.797,8.487 8.482,8.487 C -3.797,8.487 0,4.69 0,0" /></g><g
           transform="translate(571.2654,287.3129)"
           id="g172"><path
             id="path174"
             style="fill:#969696;fill-opacity:1;fill-rule:nonzero;stroke:none"
             d="m 0,0 c 0,-4.69 -3.797,-8.487 -8.485,-8.487 -4.685,0 -8.482,3.797 -8.482,8.487 0,4.69 3.797,8.487 8.482,8.487 C -3.797,8.487 0,4.69 0,0" /></g><g
           transform="translate(592.7623,327.8861)"
           id="g176"><path
             id="path178"
             style="fill:#969696;fill-opacity:1;fill-rule:nonzero;stroke:none"
             d="m 0,0 c 0,-4.681 -3.797,-8.478 -8.483,-8.478 -4.687,0 -8.484,3.797 -8.484,8.478 0,4.69 3.797,8.487 8.484,8.487 C -3.797,8.487 0,4.69 0,0" /></g><g
           transform="translate(721.4414,316.7372)"
           id="g180"><path
             id="path182"
             style="fill:#969696;fill-opacity:1;fill-rule:nonzero;stroke:none"
             d="m 0,0 c -1.052,0 -1.876,-0.867 -1.876,-1.988 l 0,-10.615 -5.951,10.966 c -0.58,1.043 -1.547,1.589 -2.642,1.589 -1.695,0 -2.875,-1.268 -2.875,-3.081 l 0,-13.226 c 0,-1.082 0.875,-2.009 1.901,-2.009 1.038,0 1.854,0.878 1.854,2.009 l 0,10.945 6.144,-11.267 c 0.757,-1.355 1.915,-1.638 2.697,-1.638 1.491,0 2.624,1.228 2.624,2.856 l 0,13.471 C 1.876,-0.867 1.052,0 0,0 m 15.147,-10.264 c -0.173,-2.748 -1.655,-4.132 -4.401,-4.132 l -2.634,0 0,10.478 2.634,0 c 2.827,0 4.272,-1.413 4.428,-4.328 0.027,-0.673 0.017,-1.413 -0.027,-2.018 m -4.474,10.157 -3.709,0 C 5.371,-0.107 4.34,-1.13 4.34,-2.729 l 0,-12.827 c 0,-1.57 1.077,-2.661 2.624,-2.661 l 3.709,0 c 5,0 7.939,2.768 8.273,7.797 0.036,0.624 0.066,1.619 -0.024,2.73 -0.329,4.893 -3.256,7.583 -8.249,7.583 m -35.696,-9.543 1.888,5.683 c 0.015,0.029 0.059,0.146 0.195,0.146 0.088,0 0.151,-0.068 0.173,-0.156 l 1.867,-5.673 -4.123,0 z m 5.524,7.223 c -0.582,1.637 -1.835,2.573 -3.441,2.573 -1.593,0 -2.832,-0.936 -3.409,-2.573 l -4.608,-13.207 c -0.346,-1.004 0.137,-2.164 1.05,-2.515 0.22,-0.097 0.451,-0.136 0.682,-0.136 0.77,0 1.482,0.497 1.777,1.247 l 1.279,3.87 6.441,0 1.277,-3.87 c 0.246,-0.731 0.948,-1.228 1.749,-1.228 0.244,0 0.485,0.049 0.704,0.146 0.905,0.351 1.397,1.521 1.056,2.486 l -4.557,13.207 z m -18.673,-12.048 -3.989,0 0,3.782 4.035,0 c 0.962,0 2.105,-0.331 2.105,-1.891 0,-1.286 -0.684,-1.891 -2.151,-1.891 m -3.989,10.586 3.745,0 c 1.372,0 1.954,-0.487 1.954,-1.647 0,-1.131 -0.633,-1.686 -1.954,-1.686 l -3.745,0 0,3.333 z m 7.641,-4.903 c 1.199,0.78 1.838,2.086 1.838,3.792 0,2.358 -1.62,4.893 -5.176,4.893 l -5.453,0 c -1.543,0 -2.627,-1.102 -2.627,-2.681 l 0,-12.768 c 0,-1.589 1.057,-2.661 2.627,-2.661 l 5.524,0 c 3.485,0 5.563,1.998 5.563,5.341 0,1.911 -0.848,3.402 -2.296,4.084 m 48.049,-14.094 -55.49,0 c -7.34,0 -13.3,6.131 -13.3,13.675 0,7.632 5.96,13.831 13.3,13.831 l 55.49,0 c 7.339,0 13.307,-6.199 13.307,-13.831 0,-7.544 -5.968,-13.675 -13.307,-13.675 m 0.361,29.728 -56.21,0 c -8.436,0 -15.303,-7.202 -15.303,-16.053 0,-8.919 6.724,-15.907 15.303,-15.907 l 56.21,0 c 8.584,0 15.305,6.988 15.305,15.907 0,8.851 -6.867,16.053 -15.305,16.053" /></g></g></g></g></svg>