<?xml version="1.0" encoding="utf-8"?>
<!-- Generator: Adobe Illustrator 16.0.0, SVG Export Plug-In . SVG Version: 6.00 Build 0)  -->
<!DOCTYPE svg PUBLIC "-//W3C//DTD SVG 1.1//EN" "http://www.w3.org/Graphics/SVG/1.1/DTD/svg11.dtd">
<svg version="1.1" id="Layer_1" xmlns="http://www.w3.org/2000/svg" xmlns:xlink="http://www.w3.org/1999/xlink" x="0px" y="0px"
	 width="841.89px" height="595.28px" viewBox="0 0 841.89 595.28" enable-background="new 0 0 841.89 595.28" xml:space="preserve">
<g id="g20" transform="translate(196.7029,453.5993)" display="none">
	<path id="path22" display="inline" fill="#FFFFFF" d="M-28.554-369.525c0,46.433-37.642,84.074-84.074,84.074
		c-46.434,0-84.074-37.642-84.074-84.074s37.641-84.074,84.074-84.074C-66.196-453.599-28.554-415.958-28.554-369.525"/>
</g>
<g id="g24" transform="translate(196.7029,453.5993)" display="none">
	<path id="path26" display="inline" fill="none" stroke="#969696" stroke-miterlimit="10" d="M-28.554-369.525
		c0,46.433-37.642,84.074-84.074,84.074c-46.434,0-84.074-37.642-84.074-84.074s37.641-84.074,84.074-84.074
		C-66.196-453.599-28.554-415.958-28.554-369.525z"/>
</g>
<g id="g116" transform="translate(153.2104,440.6529)">
	<path id="path118" fill="#969696" d="M-87.385-388.353c0,7.458-6.068,13.525-13.525,13.525h-32.367
		c-7.458,0-13.524-6.067-13.524-13.525v-32.366c0-7.457,6.066-13.524,13.524-13.524h32.366c7.458,0,13.526,6.067,13.526,13.524
		V-388.353z M-100.912-440.653h-32.366c-10.991,0-19.933,8.942-19.933,19.934v32.366c0,10.991,8.941,19.935,19.933,19.935h32.366
		c10.992,0,19.935-8.943,19.935-19.935v-32.366C-80.977-431.711-89.919-440.653-100.912-440.653"/>
</g>
<g id="g120" transform="translate(129.4436,443.8365)">
	<path id="path122" fill="#969696" d="M-93.327-395.516c-6.729,0-12.204-5.474-12.204-12.202c0-6.729,5.475-12.205,12.204-12.205
		c6.73,0,12.204,5.476,12.204,12.205C-81.123-400.99-86.599-395.516-93.327-395.516 M-93.327-426.331
		c-10.264,0-18.612,8.349-18.612,18.612c0,10.263,8.349,18.612,18.612,18.612s18.612-8.35,18.612-18.612
		C-74.715-417.982-83.064-426.331-93.327-426.331"/>
</g>
<g id="g124" transform="translate(144.9584,472.8364)">
	<path id="path126" fill="#969696" d="M-89.449-460.765c-1.235,0-2.447,0.5-3.32,1.376c-0.876,0.871-1.38,2.085-1.38,3.323
		c0,1.235,0.504,2.449,1.38,3.324c0.871,0.872,2.085,1.376,3.32,1.376c1.238,0,2.449-0.504,3.324-1.376
		c0.876-0.875,1.376-2.089,1.376-3.324c0-1.238-0.5-2.452-1.376-3.323C-86.996-460.265-88.21-460.765-89.449-460.765"/>
</g>
</svg>
