<?xml version="1.0" encoding="utf-8"?>
<!-- Generator: Adobe Illustrator 16.0.0, SVG Export Plug-In . SVG Version: 6.00 Build 0)  -->
<!DOCTYPE svg PUBLIC "-//W3C//DTD SVG 1.1//EN" "http://www.w3.org/Graphics/SVG/1.1/DTD/svg11.dtd">
<svg version="1.1" id="Layer_1" xmlns="http://www.w3.org/2000/svg" xmlns:xlink="http://www.w3.org/1999/xlink" x="0px" y="0px"
	 width="841.89px" height="595.28px" viewBox="0 0 841.89 595.28" enable-background="new 0 0 841.89 595.28" xml:space="preserve">
<g id="g20" transform="translate(196.7029,453.5993)" display="none">
	<path id="path22" display="inline" fill="#FFFFFF" d="M-28.554-369.525c0,46.433-37.642,84.074-84.074,84.074
		c-46.434,0-84.074-37.642-84.074-84.074s37.641-84.074,84.074-84.074C-66.196-453.599-28.554-415.958-28.554-369.525"/>
</g>
<g id="g24" transform="translate(196.7029,453.5993)" display="none">
	<path id="path26" display="inline" fill="none" stroke="#969696" stroke-miterlimit="10" d="M-28.554-369.525
		c0,46.433-37.642,84.074-84.074,84.074c-46.434,0-84.074-37.642-84.074-84.074s37.641-84.074,84.074-84.074
		C-66.196-453.599-28.554-415.958-28.554-369.525z"/>
</g>
<g>
	<g id="g160" transform="translate(549.7707,327.8861)">
		<path id="path162" fill="#969696" d="M-528.558-317.277c0,5.851-4.746,10.597-10.608,10.597c-5.856,0-10.604-4.746-10.604-10.597
			c0-5.863,4.748-10.609,10.604-10.609C-533.304-327.886-528.558-323.14-528.558-317.277"/>
	</g>
	<g id="g164" transform="translate(571.2654,327.8861)">
		<path id="path166" fill="#969696" d="M-523.184-317.277c0,5.851-4.746,10.597-10.606,10.597c-5.855,0-10.603-4.746-10.603-10.597
			c0-5.863,4.747-10.609,10.603-10.609C-527.93-327.886-523.184-323.14-523.184-317.277"/>
	</g>
	<g id="g168" transform="translate(571.2654,307.6036)">
		<path id="path170" fill="#969696" d="M-523.184-271.642c0,5.862-4.746,10.609-10.606,10.609c-5.855,0-10.603-4.747-10.603-10.609
			s4.747-10.608,10.603-10.608C-527.93-282.25-523.184-277.504-523.184-271.642"/>
	</g>
	<g id="g172" transform="translate(571.2654,287.3129)">
		<path id="path174" fill="#969696" d="M-523.184-225.988c0,5.863-4.746,10.609-10.606,10.609c-5.855,0-10.603-4.746-10.603-10.609
			c0-5.862,4.747-10.608,10.603-10.608C-527.93-236.596-523.184-231.85-523.184-225.988"/>
	</g>
	<g id="g176" transform="translate(592.7623,327.8861)">
		<path id="path178" fill="#969696" d="M-517.81-317.277c0,5.851-4.746,10.597-10.604,10.597c-5.858,0-10.605-4.746-10.605-10.597
			c0-5.863,4.747-10.609,10.605-10.609C-522.556-327.886-517.81-323.14-517.81-317.277"/>
	</g>
</g>
</svg>
