<?xml version="1.0" encoding="utf-8"?>
<!-- Generator: Adobe Illustrator 16.0.0, SVG Export Plug-In . SVG Version: 6.00 Build 0)  -->
<!DOCTYPE svg PUBLIC "-//W3C//DTD SVG 1.1//EN" "http://www.w3.org/Graphics/SVG/1.1/DTD/svg11.dtd">
<svg version="1.1" id="Layer_1" xmlns="http://www.w3.org/2000/svg" xmlns:xlink="http://www.w3.org/1999/xlink" x="0px" y="0px"
	 width="841.89px" height="595.28px" viewBox="0 0 841.89 595.28" enable-background="new 0 0 841.89 595.28" xml:space="preserve">
<g id="g20" transform="translate(196.7029,453.5993)" display="none">
	<path id="path22" display="inline" fill="#FFFFFF" d="M-28.554-369.525c0,46.433-37.642,84.074-84.074,84.074
		c-46.434,0-84.074-37.642-84.074-84.074s37.641-84.074,84.074-84.074C-66.196-453.599-28.554-415.958-28.554-369.525"/>
</g>
<g id="g24" transform="translate(196.7029,453.5993)" display="none">
	<path id="path26" display="inline" fill="none" stroke="#969696" stroke-miterlimit="10" d="M-28.554-369.525
		c0,46.433-37.642,84.074-84.074,84.074c-46.434,0-84.074-37.642-84.074-84.074s37.641-84.074,84.074-84.074
		C-66.196-453.599-28.554-415.958-28.554-369.525z"/>
</g>
<g id="g132" transform="translate(141.1077,334.8581)">
	<path id="path134" fill="#969696" d="M-108.401-334.858h-29.161c-1.959,0-3.546,1.578-3.546,3.526v28.92
		c0,1.948,1.587,3.525,3.546,3.525h13.445c-0.093,3.438-1.533,7.184-3.613,10.505c-2.341,3.737-7.329,7.878-7.376,7.913
		c-0.393,0.377-0.68,0.813-0.687,1.417c-0.005,0.46,0.233,0.816,0.5,1.192l9.377,10.513c0,0,0.455,0.478,0.832,0.568
		c0.424,0.101,0.904,0.114,1.237-0.143c16.236-12.484,18.582-28.141,18.989-36.613c0.001-0.05,0.002-27.798,0.002-27.798
		C-104.855-333.28-106.442-334.858-108.401-334.858"/>
</g>
</svg>
