<?xml version="1.0" encoding="utf-8"?>
<!-- Generator: Adobe Illustrator 16.0.0, SVG Export Plug-In . SVG Version: 6.00 Build 0)  -->
<!DOCTYPE svg PUBLIC "-//W3C//DTD SVG 1.1//EN" "http://www.w3.org/Graphics/SVG/1.1/DTD/svg11.dtd">
<svg version="1.1" id="Layer_1" xmlns="http://www.w3.org/2000/svg" xmlns:xlink="http://www.w3.org/1999/xlink" x="0px" y="0px"
	 width="841.89px" height="595.28px" viewBox="0 0 841.89 595.28" enable-background="new 0 0 841.89 595.28" xml:space="preserve">
<g id="g20" transform="translate(196.7029,453.5993)" display="none">
	<path id="path22" display="inline" fill="#FFFFFF" d="M-28.554-369.525c0,46.433-37.642,84.074-84.074,84.074
		c-46.434,0-84.074-37.642-84.074-84.074s37.641-84.074,84.074-84.074C-66.196-453.599-28.554-415.958-28.554-369.525"/>
</g>
<g id="g24" transform="translate(196.7029,453.5993)" display="none">
	<path id="path26" display="inline" fill="none" stroke="#969696" stroke-miterlimit="10" d="M-28.554-369.525
		c0,46.433-37.642,84.074-84.074,84.074c-46.434,0-84.074-37.642-84.074-84.074s37.641-84.074,84.074-84.074
		C-66.196-453.599-28.554-415.958-28.554-369.525z"/>
</g>
<g id="g128" transform="translate(594.6199,473.3414)">
	<path id="path130" fill="#969696" d="M-515.023-465.692c-2.93,1.298-6.072,2.179-9.375,2.571c3.371-2.019,5.952-5.223,7.176-9.027
		c-3.162,1.87-6.654,3.229-10.375,3.965c-2.979-3.179-7.217-5.158-11.917-5.158c-9.018,0-16.329,7.311-16.329,16.324
		c0,1.277,0.144,2.526,0.423,3.721c-13.569-0.682-25.601-7.183-33.652-17.061c-1.408,2.407-2.209,5.213-2.209,8.206
		c0,5.665,2.885,10.664,7.263,13.589c-2.677-0.09-5.194-0.826-7.396-2.05v0.205c0,7.907,5.63,14.508,13.097,16.01
		c-1.369,0.369-2.811,0.572-4.303,0.572c-1.056,0-2.074-0.104-3.074-0.304c2.079,6.491,8.107,11.212,15.25,11.341
		c-5.586,4.377-12.628,6.979-20.278,6.979c-1.317,0-2.616-0.08-3.896-0.224c7.228,4.64,15.808,7.346,25.029,7.346
		c30.036,0,46.455-24.879,46.455-46.455l-0.056-2.113C-519.982-459.545-517.207-462.42-515.023-465.692"/>
</g>
</svg>
