<?xml version="1.0" encoding="utf-8"?>
<!-- Generator: Adobe Illustrator 16.0.0, SVG Export Plug-In . SVG Version: 6.00 Build 0)  -->
<!DOCTYPE svg PUBLIC "-//W3C//DTD SVG 1.1//EN" "http://www.w3.org/Graphics/SVG/1.1/DTD/svg11.dtd">
<svg version="1.1" id="Layer_1" xmlns="http://www.w3.org/2000/svg" xmlns:xlink="http://www.w3.org/1999/xlink" x="0px" y="0px"
	 width="841.89px" height="595.28px" viewBox="0 0 841.89 595.28" enable-background="new 0 0 841.89 595.28" xml:space="preserve">
<g id="g20" transform="translate(196.7029,453.5993)" display="none">
	<path id="path22" display="inline" fill="#FFFFFF" d="M-28.554-369.525c0,46.433-37.642,84.074-84.074,84.074
		c-46.434,0-84.074-37.642-84.074-84.074s37.641-84.074,84.074-84.074C-66.196-453.599-28.554-415.958-28.554-369.525"/>
</g>
<g id="g24" transform="translate(196.7029,453.5993)" display="none">
	<path id="path26" display="inline" fill="none" stroke="#969696" stroke-miterlimit="10" d="M-28.554-369.525
		c0,46.433-37.642,84.074-84.074,84.074c-46.434,0-84.074-37.642-84.074-84.074s37.641-84.074,84.074-84.074
		C-66.196-453.599-28.554-415.958-28.554-369.525z"/>
</g>
<g id="g152" transform="translate(448.5351,323.1456)">
	<path id="path154" fill="#969696" d="M-372.143-306.092c-0.601-2.11-1.488-4.153-2.636-6.064c-1.142-1.906-2.479-3.598-3.97-5.025
		c-4.048-3.957-10.177-5.964-18.218-5.964h-17.057c-3.04,0-5.433,0.859-7.112,2.554c-1.709,1.725-2.54,4.047-2.54,7.101v54.545
		c0,2.503,0.706,4.554,2.156,6.276c1.444,1.679,3.33,2.499,5.769,2.499c2.458,0,4.323-0.812,5.698-2.483
		c1.385-1.69,2.086-3.806,2.086-6.292v-50.571h9.906c2.986,0,5.497,0.896,7.464,2.659c1.968,1.778,3.049,4.204,3.215,7.211
		c0,3.291-0.964,5.917-2.865,7.836c-2.056,2.056-4.901,3.054-8.698,3.054h-5.085v13.557h9.256c7.857,0,13.937-2.55,18.066-7.579
		c3.624-4.313,5.459-10.011,5.459-16.942C-371.249-301.826-371.55-303.969-372.143-306.092"/>
</g>
<g id="g156" transform="translate(389.1626,307.868)">
	<path id="path158" fill="#969696" d="M-386.986-271.717c-1.466,1.215-2.177,2.81-2.177,4.881c0,2.159,0.701,3.79,2.143,4.989
		c1.452,1.224,3.3,1.839,5.49,1.839h13.678v-13.548h-13.678C-383.708-273.556-385.491-272.956-386.986-271.717"/>
</g>
</svg>
