<?xml version="1.0" encoding="utf-8"?>
<!-- Generator: Adobe Illustrator 16.0.0, SVG Export Plug-In . SVG Version: 6.00 Build 0)  -->
<!DOCTYPE svg PUBLIC "-//W3C//DTD SVG 1.1//EN" "http://www.w3.org/Graphics/SVG/1.1/DTD/svg11.dtd">
<svg version="1.1" id="Layer_1" xmlns="http://www.w3.org/2000/svg" xmlns:xlink="http://www.w3.org/1999/xlink" x="0px" y="0px"
	 width="841.89px" height="595.28px" viewBox="0 0 841.89 595.28" enable-background="new 0 0 841.89 595.28" xml:space="preserve">
<g id="g20" transform="translate(196.7029,453.5993)" display="none">
	<path id="path22" display="inline" fill="#FFFFFF" d="M-28.554-369.525c0,46.433-37.642,84.074-84.074,84.074
		c-46.434,0-84.074-37.642-84.074-84.074s37.641-84.074,84.074-84.074C-66.196-453.599-28.554-415.958-28.554-369.525"/>
</g>
<g id="g24" transform="translate(196.7029,453.5993)" display="none">
	<path id="path26" display="inline" fill="none" stroke="#969696" stroke-miterlimit="10" d="M-28.554-369.525
		c0,46.433-37.642,84.074-84.074,84.074c-46.434,0-84.074-37.642-84.074-84.074s37.641-84.074,84.074-84.074
		C-66.196-453.599-28.554-415.958-28.554-369.525z"/>
</g>
<g id="g136" transform="translate(278.3332,314.2824)">
	<path id="path138" fill="#969696" d="M-225.935-283.23c-2.035,0-3.687,1.65-3.687,3.686c0,2.036,1.651,3.688,3.687,3.688
		s3.685-1.651,3.685-3.688C-222.25-281.579-223.9-283.23-225.935-283.23"/>
</g>
<g id="g140" transform="translate(303.2074,305.0038)">
	<path id="path142" fill="#969696" d="M-219.716-262.352c0,9.05-8.382,8.961-8.382,8.961h-2.229v-5.082h1.381
		c4.06,0,3.656-4.19,3.656-4.19v-1.339c-1.782,2.318-5.037,2.186-5.037,2.186c-7.981,0-7.892-8.509-7.892-8.509
		c0-9.133,8.115-8.79,8.115-8.79c3.165,0,4.813,2.184,4.813,2.184v-1.604h5.573V-262.352z M-241.116-270.265
		c0,8.716-9.696,8.73-9.696,8.73c-9.782,0-9.476-8.73-9.476-8.73c0-8.851,9.476-8.852,9.476-8.852
		C-240.799-279.116-241.116-270.265-241.116-270.265 M-264.328-277.585v15.454h-5.529v-14.146c0-4.875-2.617-4.757-2.617-4.757
		v-5.528C-264.093-286.562-264.328-277.585-264.328-277.585 M-282.402-261.534c-3.449,0-4.816-2.469-4.816-2.469v1.872h-5.796
		v-23.896h5.737v9.095c2.319-2.258,4.875-2.258,4.875-2.258c7.786,0,8.084,8.739,8.084,8.739
		C-274.318-261.831-282.402-261.534-282.402-261.534 M-224.317-305.004h-64.095c-8.173,0-14.796,6.648-14.796,14.851v35.227
		c0,8.202,6.623,14.851,14.796,14.851h22.077l7.535,12.269c0,0,0.081,0.146,0.245,0.348c0.441,0.755,1.253,1.27,2.188,1.27
		c0.933,0,1.739-0.507,2.183-1.253c0.189-0.223,0.254-0.366,0.254-0.366l7.535-12.267h22.077c8.172,0,14.798-6.648,14.798-14.851
		v-35.227C-209.519-298.355-216.145-305.004-224.317-305.004"/>
</g>
<g id="g144" transform="translate(296.0065,314.2824)">
	<path id="path146" fill="#969696" d="M-221.516-283.23c-2.037,0-3.686,1.65-3.686,3.686c0,2.036,1.648,3.688,3.686,3.688
		c2.034,0,3.685-1.651,3.685-3.688C-217.832-281.579-219.482-283.23-221.516-283.23"/>
</g>
<g id="g148" transform="translate(252.0492,314.2824)">
	<path id="path150" fill="#969696" d="M-232.506-283.23c-2.035,0-3.686,1.65-3.686,3.686c0,2.036,1.65,3.688,3.686,3.688
		s3.686-1.651,3.686-3.688C-228.821-281.579-230.471-283.23-232.506-283.23"/>
</g>
</svg>
