<?xml version="1.0" encoding="utf-8"?>
<!-- Generator: Adobe Illustrator 16.0.0, SVG Export Plug-In . SVG Version: 6.00 Build 0)  -->
<!DOCTYPE svg PUBLIC "-//W3C//DTD SVG 1.1//EN" "http://www.w3.org/Graphics/SVG/1.1/DTD/svg11.dtd">
<svg version="1.1" id="Layer_1" xmlns="http://www.w3.org/2000/svg" xmlns:xlink="http://www.w3.org/1999/xlink" x="0px" y="0px"
	 width="841.89px" height="595.28px" viewBox="0 0 841.89 595.28" enable-background="new 0 0 841.89 595.28" xml:space="preserve">
<g id="g20" transform="translate(196.7029,453.5993)" display="none">
	<path id="path22" display="inline" fill="#FFFFFF" d="M-28.554-369.525c0,46.433-37.642,84.074-84.074,84.074
		c-46.434,0-84.074-37.642-84.074-84.074s37.641-84.074,84.074-84.074C-66.196-453.599-28.554-415.958-28.554-369.525"/>
</g>
<g id="g24" transform="translate(196.7029,453.5993)" display="none">
	<path id="path26" display="inline" fill="none" stroke="#969696" stroke-miterlimit="10" d="M-28.554-369.525
		c0,46.433-37.642,84.074-84.074,84.074c-46.434,0-84.074-37.642-84.074-84.074s37.641-84.074,84.074-84.074
		C-66.196-453.599-28.554-415.958-28.554-369.525z"/>
</g>
<g id="g180" transform="translate(721.4414,316.7372)">
	<path id="path182" fill="#969696" d="M-649.412-308.184c-1.315,0-2.346,1.084-2.346,2.485v13.269l-7.438-13.707
		c-0.725-1.304-1.934-1.986-3.303-1.986c-2.118,0-3.594,1.585-3.594,3.851v16.533c0,1.353,1.094,2.511,2.376,2.511
		c1.298,0,2.318-1.098,2.318-2.511v-13.682l7.68,14.084c0.946,1.693,2.394,2.047,3.371,2.047c1.864,0,3.28-1.534,3.28-3.569v-16.839
		C-647.067-307.1-648.098-308.184-649.412-308.184 M-630.479-295.354c-0.217,3.436-2.069,5.165-5.502,5.165h-3.292v-13.098h3.292
		c3.534,0,5.341,1.767,5.535,5.41C-630.411-297.035-630.424-296.11-630.479-295.354 M-636.071-308.051h-4.637
		c-1.991,0-3.279,1.279-3.279,3.277v16.034c0,1.963,1.346,3.326,3.279,3.326h4.637c6.25,0,9.924-3.46,10.341-9.746
		c0.045-0.78,0.083-2.023-0.029-3.413C-626.171-304.688-629.83-308.051-636.071-308.051 M-680.691-296.122l2.36-7.104
		c0.019-0.036,0.073-0.183,0.243-0.183c0.11,0,0.189,0.085,0.217,0.195l2.334,7.091H-680.691z M-673.786-305.15
		c-0.728-2.047-2.294-3.217-4.302-3.217c-1.991,0-3.54,1.17-4.261,3.217l-5.76,16.509c-0.433,1.255,0.171,2.705,1.313,3.144
		c0.274,0.121,0.563,0.17,0.853,0.17c0.962,0,1.852-0.621,2.221-1.559l1.599-4.838h8.052l1.596,4.838
		c0.308,0.914,1.186,1.535,2.187,1.535c0.305,0,0.606-0.062,0.88-0.183c1.131-0.438,1.746-1.901,1.32-3.107L-673.786-305.15z
		 M-697.128-290.091h-4.986v-4.728h5.044c1.203,0,2.632,0.414,2.632,2.364C-694.438-290.847-695.294-290.091-697.128-290.091
		 M-702.114-303.323h4.682c1.715,0,2.442,0.609,2.442,2.059c0,1.414-0.791,2.107-2.442,2.107h-4.682V-303.323z M-692.563-297.194
		c1.499-0.975,2.298-2.607,2.298-4.74c0-2.947-2.025-6.116-6.471-6.116h-6.816c-1.929,0-3.283,1.378-3.283,3.352v15.96
		c0,1.986,1.321,3.326,3.283,3.326h6.905c4.356,0,6.954-2.497,6.954-6.676C-689.692-294.478-690.753-296.342-692.563-297.194
		 M-632.501-279.577h-69.363c-9.175,0-16.625-7.663-16.625-17.094c0-9.54,7.45-17.288,16.625-17.288h69.363
		c9.174,0,16.634,7.748,16.634,17.288C-615.867-287.24-623.327-279.577-632.501-279.577 M-632.05-316.737h-70.263
		c-10.545,0-19.129,9.003-19.129,20.066c0,11.149,8.405,19.884,19.129,19.884h70.263c10.729,0,19.131-8.734,19.131-19.884
		C-612.919-307.734-621.503-316.737-632.05-316.737"/>
</g>
</svg>
