<?xml version="1.0" encoding="utf-8"?>
<!-- Generator: Adobe Illustrator 16.0.0, SVG Export Plug-In . SVG Version: 6.00 Build 0)  -->
<!DOCTYPE svg PUBLIC "-//W3C//DTD SVG 1.1//EN" "http://www.w3.org/Graphics/SVG/1.1/DTD/svg11.dtd">
<svg version="1.1" id="Layer_1" xmlns="http://www.w3.org/2000/svg" xmlns:xlink="http://www.w3.org/1999/xlink" x="0px" y="0px"
	 width="841.89px" height="595.28px" viewBox="0 0 841.89 595.28" enable-background="new 0 0 841.89 595.28" xml:space="preserve">
<g id="g20" transform="translate(196.7029,453.5993)" display="none">
	<path id="path22" display="inline" fill="#FFFFFF" d="M-28.554-369.525c0,46.433-37.642,84.074-84.074,84.074
		c-46.434,0-84.074-37.642-84.074-84.074s37.641-84.074,84.074-84.074C-66.196-453.599-28.554-415.958-28.554-369.525"/>
</g>
<g id="g24" transform="translate(196.7029,453.5993)" display="none">
	<path id="path26" display="inline" fill="none" stroke="#969696" stroke-miterlimit="10" d="M-28.554-369.525
		c0,46.433-37.642,84.074-84.074,84.074c-46.434,0-84.074-37.642-84.074-84.074s37.641-84.074,84.074-84.074
		C-66.196-453.599-28.554-415.958-28.554-369.525z"/>
</g>
<g id="g100" transform="translate(737.6276,456.4166)">
	<path id="path102" fill="#969696" d="M-660.308-423.324l-11.919-11.919v-13.768c0-2.488-2.017-4.506-4.51-4.506
		c-2.487,0-4.505,2.018-4.505,4.506v4.754l-8.874-8.875c-4.388-4.385-12.015-4.378-16.393,0.008l-29.8,29.8
		c-1.76,1.763-1.76,4.615,0,6.375c1.76,1.763,4.617,1.763,6.376,0l29.798-29.8c0.971-0.967,2.681-0.967,3.647-0.004l29.803,29.804
		c0.884,0.881,2.034,1.318,3.188,1.318s2.308-0.438,3.188-1.318C-658.548-418.709-658.548-421.561-660.308-423.324"/>
</g>
<g id="g104" transform="translate(708.48,468.313)">
	<path id="path106" fill="#969696" d="M-667.595-450.091c-0.866-0.864-2.268-0.864-3.132,0l-26.211,26.205
		c-0.414,0.413-0.648,0.978-0.648,1.568v19.112c0,4.484,3.636,8.121,8.121,8.121h12.978v-20.099h14.651v20.099h12.978
		c4.484,0,8.121-3.637,8.121-8.121v-19.112c0-0.591-0.232-1.155-0.648-1.568L-667.595-450.091z"/>
</g>
</svg>
