<?xml version="1.0" encoding="utf-8"?>
<!-- Generator: Adobe Illustrator 16.0.0, SVG Export Plug-In . SVG Version: 6.00 Build 0)  -->
<!DOCTYPE svg PUBLIC "-//W3C//DTD SVG 1.1//EN" "http://www.w3.org/Graphics/SVG/1.1/DTD/svg11.dtd">
<svg version="1.1" id="Layer_1" xmlns="http://www.w3.org/2000/svg" xmlns:xlink="http://www.w3.org/1999/xlink" x="0px" y="0px"
	 width="841.89px" height="595.28px" viewBox="0 0 841.89 595.28" enable-background="new 0 0 841.89 595.28" xml:space="preserve">
<g id="g20" transform="translate(196.7029,453.5993)" display="none">
	<path id="path22" display="inline" fill="#FFFFFF" d="M-28.554-369.525c0,46.433-37.642,84.074-84.074,84.074
		c-46.434,0-84.074-37.642-84.074-84.074s37.641-84.074,84.074-84.074C-66.196-453.599-28.554-415.958-28.554-369.525"/>
</g>
<g id="g24" transform="translate(196.7029,453.5993)" display="none">
	<path id="path26" display="inline" fill="none" stroke="#969696" stroke-miterlimit="10" d="M-28.554-369.525
		c0,46.433-37.642,84.074-84.074,84.074c-46.434,0-84.074-37.642-84.074-84.074s37.641-84.074,84.074-84.074
		C-66.196-453.599-28.554-415.958-28.554-369.525z"/>
</g>
<g id="g108" transform="translate(283.6967,451.9485)">
	<path id="path110" fill="#969696" d="M-228.274-419.508l-18.111,9.466c-0.405,0.212-0.848,0.316-1.29,0.316
		c-0.501,0-1-0.135-1.442-0.402c-0.834-0.505-1.343-1.408-1.343-2.383v-18.871c0-0.971,0.508-1.873,1.339-2.379
		c0.833-0.506,1.866-0.539,2.73-0.091l18.111,9.403c0.921,0.479,1.5,1.431,1.501,2.468
		C-226.778-420.942-227.354-419.99-228.274-419.508 M-200.734-446.733c-3.116-3.705-8.869-5.216-19.856-5.216h-39.885
		c-11.24,0-17.09,1.608-20.195,5.552c-3.026,3.847-3.026,9.511-3.026,17.353v14.946c0,15.189,3.592,22.903,23.222,22.903h39.885
		c9.527,0,14.808-1.333,18.224-4.603c3.503-3.353,4.998-8.826,4.998-18.301v-14.946
		C-197.369-437.313-197.603-443.013-200.734-446.733"/>
</g>
</svg>
