<?xml version="1.0" encoding="utf-8"?>
<!-- Generator: Adobe Illustrator 16.0.0, SVG Export Plug-In . SVG Version: 6.00 Build 0)  -->
<!DOCTYPE svg PUBLIC "-//W3C//DTD SVG 1.1//EN" "http://www.w3.org/Graphics/SVG/1.1/DTD/svg11.dtd">
<svg version="1.1" id="Layer_1" xmlns="http://www.w3.org/2000/svg" xmlns:xlink="http://www.w3.org/1999/xlink" x="0px" y="0px"
	 width="150px" height="150px" viewBox="0 0 150 150" enable-background="new 0 0 150 150" xml:space="preserve">
<g id="g128" transform="translate(594.6199,473.3414)">
	<path id="path130" fill="#959595" d="M-484.378-420.194c-2.594,1.149-5.377,1.93-8.301,2.277c2.984-1.788,5.27-4.625,6.354-7.994
		c-2.799,1.656-5.893,2.858-9.188,3.511c-2.639-2.814-6.391-4.567-10.553-4.567c-7.984,0-14.459,6.474-14.459,14.455
		c0,1.131,0.127,2.237,0.375,3.295c-12.016-0.604-22.67-6.36-29.801-15.107c-1.246,2.132-1.955,4.616-1.955,7.267
		c0,5.017,2.555,9.443,6.432,12.033c-2.371-0.08-4.6-0.731-6.551-1.815v0.182c0,7.002,4.986,12.847,11.598,14.177
		c-1.213,0.326-2.488,0.507-3.811,0.507c-0.934,0-1.836-0.093-2.723-0.269c1.842,5.748,7.18,9.928,13.504,10.042
		c-4.945,3.876-11.182,6.18-17.955,6.18c-1.168,0-2.318-0.071-3.451-0.198c6.4,4.108,13.998,6.505,22.164,6.505
		c26.598,0,41.137-22.03,41.137-41.137l-0.049-1.871C-488.768-414.751-486.311-417.296-484.378-420.194"/>
</g>
</svg>
