<?xml version="1.0" encoding="utf-8"?>
<!-- Generator: Adobe Illustrator 16.0.0, SVG Export Plug-In . SVG Version: 6.00 Build 0)  -->
<!DOCTYPE svg PUBLIC "-//W3C//DTD SVG 1.1//EN" "http://www.w3.org/Graphics/SVG/1.1/DTD/svg11.dtd">
<svg version="1.1" id="Layer_1" xmlns="http://www.w3.org/2000/svg" xmlns:xlink="http://www.w3.org/1999/xlink" x="0px" y="0px"
	 width="150px" height="150px" viewBox="0 0 150 150" enable-background="new 0 0 150 150" xml:space="preserve">
<g id="g132" transform="translate(141.1077,334.8581)">
	<path id="path134" fill="#959595" d="M-53.196-290.03h-25.823c-1.734,0-3.14,1.397-3.14,3.123v25.609
		c0,1.725,1.405,3.122,3.14,3.122h11.906c-0.083,3.045-1.358,6.361-3.2,9.302c-2.073,3.311-6.49,6.977-6.532,7.008
		c-0.348,0.334-0.602,0.72-0.608,1.255c-0.004,0.407,0.207,0.723,0.443,1.056l8.304,9.309c0,0,0.402,0.424,0.736,0.504
		c0.375,0.089,0.801,0.102,1.096-0.126c14.377-11.056,16.455-24.919,16.815-32.422c0.001-0.044,0.001-24.615,0.001-24.615
		C-50.057-288.633-51.461-290.03-53.196-290.03"/>
</g>
</svg>
