<?xml version="1.0" encoding="utf-8"?>
<!-- Generator: Adobe Illustrator 16.0.0, SVG Export Plug-In . SVG Version: 6.00 Build 0)  -->
<!DOCTYPE svg PUBLIC "-//W3C//DTD SVG 1.1//EN" "http://www.w3.org/Graphics/SVG/1.1/DTD/svg11.dtd">
<svg version="1.1" id="Layer_1" xmlns="http://www.w3.org/2000/svg" xmlns:xlink="http://www.w3.org/1999/xlink" x="0px" y="0px"
	 width="150px" height="150px" viewBox="0 0 150 150" enable-background="new 0 0 150 150" xml:space="preserve">
<g>
	<path fill="#959595" d="M108.428,57.792c-0.533-1.869-1.318-3.678-2.334-5.37c-1.012-1.688-2.195-3.186-3.516-4.45
		c-3.584-3.504-9.012-5.281-16.133-5.281H71.342c-2.691,0-4.811,0.761-6.298,2.262c-1.513,1.527-2.249,3.583-2.249,6.288v48.3
		c0,2.217,0.625,4.033,1.909,5.559c1.279,1.486,2.948,2.213,5.108,2.213c2.176,0,3.828-0.719,5.046-2.199
		c1.226-1.496,1.847-3.369,1.847-5.572V54.758h8.771c2.645,0,4.869,0.794,6.609,2.355c1.742,1.575,2.701,3.723,2.848,6.385
		c0,2.914-0.854,5.24-2.537,6.939c-1.82,1.82-4.34,2.704-7.703,2.704h-4.502v12.005h8.195c6.959,0,12.342-2.258,15.998-6.713
		c3.209-3.819,4.834-8.864,4.834-15.002C109.219,61.569,108.953,59.671,108.428,57.792z"/>
	<path fill="#959595" d="M42.709,74.703c-1.298,1.076-1.928,2.488-1.928,4.323c0,1.911,0.621,3.355,1.897,4.418
		c1.286,1.084,2.922,1.629,4.862,1.629h12.112V73.074H47.541C45.612,73.074,44.033,73.605,42.709,74.703z"/>
</g>
</svg>
