<?xml version="1.0" encoding="utf-8"?>
<!-- Generator: Adobe Illustrator 16.0.0, SVG Export Plug-In . SVG Version: 6.00 Build 0)  -->
<!DOCTYPE svg PUBLIC "-//W3C//DTD SVG 1.1//EN" "http://www.w3.org/Graphics/SVG/1.1/DTD/svg11.dtd">
<svg version="1.1" id="Layer_1" xmlns="http://www.w3.org/2000/svg" xmlns:xlink="http://www.w3.org/1999/xlink" x="0px" y="0px"
	 width="150px" height="150px" viewBox="0 0 150 150" enable-background="new 0 0 150 150" xml:space="preserve">
<g>
	<path fill="#959595" d="M52.523,74.617c1.328-0.863,2.035-2.309,2.035-4.197c0-2.61-1.793-5.416-5.73-5.416h-6.035
		c-1.709,0-2.908,1.22-2.908,2.968v14.133c0,1.759,1.17,2.945,2.908,2.945h6.115c3.857,0,6.158-2.211,6.158-5.911
		C55.066,77.022,54.127,75.373,52.523,74.617z M44.066,69.19h4.145c1.52,0,2.164,0.539,2.164,1.823c0,1.252-0.701,1.865-2.164,1.865
		h-4.145V69.19z M48.48,80.908h-4.414v-4.187h4.465c1.066,0,2.332,0.366,2.332,2.093C50.863,80.238,50.105,80.908,48.48,80.908z"/>
	<path fill="#959595" d="M106.109,57.312H43.891c-9.338,0-16.939,7.973-16.939,17.77c0,9.873,7.443,17.607,16.939,17.607h62.219
		c9.5,0,16.939-7.734,16.939-17.607C123.049,65.284,115.447,57.312,106.109,57.312z M105.709,90.218H44.287
		c-8.125,0-14.723-6.786-14.723-15.137c0-8.448,6.598-15.31,14.723-15.31h61.422c8.123,0,14.73,6.861,14.73,15.31
		C120.439,83.432,113.832,90.218,105.709,90.218z"/>
	<path fill="#959595" d="M90.734,64.886c-1.164,0-2.078,0.959-2.078,2.2v11.75L82.07,66.698c-0.643-1.155-1.713-1.76-2.924-1.76
		c-1.877,0-3.184,1.404-3.184,3.41v14.641c0,1.198,0.969,2.224,2.104,2.224c1.15,0,2.055-0.973,2.055-2.224V70.874l6.799,12.472
		c0.838,1.5,2.121,1.813,2.986,1.813c1.65,0,2.904-1.358,2.904-3.16V67.086C92.811,65.845,91.898,64.886,90.734,64.886z"/>
	<path fill="#959595" d="M102.547,65.004h-4.105c-1.764,0-2.904,1.133-2.904,2.902v14.198c0,1.738,1.193,2.945,2.904,2.945h4.105
		c5.535,0,8.789-3.063,9.158-8.63c0.039-0.691,0.072-1.792-0.027-3.022C111.314,67.981,108.074,65.004,102.547,65.004z
		 M107.5,76.246c-0.191,3.043-1.832,4.574-4.871,4.574h-2.916V69.222h2.916c3.129,0,4.729,1.564,4.9,4.792
		C107.561,74.758,107.549,75.578,107.5,76.246z"/>
	<path fill="#959595" d="M69.15,67.572c-0.645-1.813-2.031-2.849-3.809-2.849c-1.764,0-3.135,1.036-3.773,2.849l-5.1,14.619
		c-0.383,1.111,0.15,2.395,1.162,2.783c0.242,0.107,0.498,0.15,0.754,0.15c0.852,0,1.641-0.55,1.967-1.38l1.416-4.284h7.129
		l1.414,4.284c0.271,0.81,1.049,1.359,1.936,1.359c0.27,0,0.537-0.055,0.779-0.161c1.002-0.389,1.547-1.684,1.17-2.752L69.15,67.572
		z M63.035,75.566l2.092-6.29c0.016-0.032,0.064-0.161,0.215-0.161c0.098,0,0.168,0.075,0.191,0.173l2.066,6.278H63.035z"/>
</g>
</svg>
