<?xml version="1.0" encoding="utf-8"?>
<!-- Generator: Adobe Illustrator 16.0.0, SVG Export Plug-In . SVG Version: 6.00 Build 0)  -->
<!DOCTYPE svg PUBLIC "-//W3C//DTD SVG 1.1//EN" "http://www.w3.org/Graphics/SVG/1.1/DTD/svg11.dtd">
<svg version="1.1" id="Layer_1" xmlns="http://www.w3.org/2000/svg" xmlns:xlink="http://www.w3.org/1999/xlink" x="0px" y="0px"
	 width="150px" height="150px" viewBox="0 0 150 150" enable-background="new 0 0 150 150" xml:space="preserve">
<g>
	<path fill="#959595" d="M89.329,43.018h-28.66c-9.732,0-17.65,7.918-17.65,17.651V89.33c0,9.732,7.918,17.652,17.65,17.652h28.66
		c9.734,0,17.652-7.92,17.652-17.652V60.669C106.981,50.936,99.063,43.018,89.329,43.018z M101.308,89.33
		c0,6.604-5.374,11.977-11.977,11.977H60.669c-6.604,0-11.976-5.373-11.976-11.977V60.669c0-6.604,5.372-11.976,11.976-11.976h28.66
		c6.604,0,11.979,5.373,11.979,11.976V89.33z"/>
	<path fill="#959595" d="M74.999,58.519c-9.088,0-16.48,7.393-16.48,16.481c0,9.087,7.393,16.482,16.48,16.482
		c9.09,0,16.482-7.395,16.482-16.482C91.481,65.912,84.089,58.519,74.999,58.519z M74.999,85.806
		c-5.957,0-10.806-4.847-10.806-10.805c0-5.959,4.847-10.808,10.806-10.808c5.961,0,10.808,4.849,10.808,10.808
		C85.807,80.959,80.958,85.806,74.999,85.806z"/>
	<path fill="#959595" d="M92.173,53.707c-1.094,0-2.167,0.443-2.939,1.219c-0.776,0.771-1.223,1.846-1.223,2.943
		c0,1.094,0.446,2.168,1.223,2.943c0.771,0.772,1.846,1.219,2.939,1.219c1.097,0,2.169-0.446,2.943-1.219
		c0.775-0.775,1.219-1.85,1.219-2.943c0-1.097-0.443-2.172-1.219-2.943C94.345,54.149,93.27,53.707,92.173,53.707z"/>
</g>
</svg>
