<?xml version="1.0" encoding="utf-8"?>
<!-- Generator: Adobe Illustrator 16.0.0, SVG Export Plug-In . SVG Version: 6.00 Build 0)  -->
<!DOCTYPE svg PUBLIC "-//W3C//DTD SVG 1.1//EN" "http://www.w3.org/Graphics/SVG/1.1/DTD/svg11.dtd">
<svg version="1.1" id="Layer_1" xmlns="http://www.w3.org/2000/svg" xmlns:xlink="http://www.w3.org/1999/xlink" x="0px" y="0px"
	 width="150px" height="150px" viewBox="0 0 150 150" enable-background="new 0 0 150 150" xml:space="preserve">
<g>
	<circle fill="#959595" cx="79.918" cy="70.866" r="3.264"/>
	<path fill="#959595" d="M103.378,40.104H46.621c-7.237,0-13.103,5.887-13.103,13.15v31.193c0,7.264,5.865,13.15,13.103,13.15h19.55
		l6.673,10.864c0,0,0.071,0.129,0.217,0.308c0.391,0.669,1.109,1.125,1.938,1.125c0.826,0,1.54-0.449,1.933-1.109
		c0.168-0.197,0.226-0.324,0.226-0.324l6.672-10.863h19.55c7.236,0,13.104-5.887,13.104-13.15V53.255
		C116.481,45.992,110.614,40.104,103.378,40.104z M51.943,78.598c-3.055,0-4.266-2.187-4.266-2.187v1.658h-5.133V56.909h5.081v8.053
		c2.054-1.999,4.317-1.999,4.317-1.999c6.895,0,7.158,7.739,7.158,7.739C59.102,78.335,51.943,78.598,51.943,78.598z M67.947,64.384
		v13.685h-4.896V65.542c0-4.317-2.318-4.212-2.318-4.212v-4.896C68.155,56.435,67.947,64.384,67.947,64.384z M88.502,70.866
		c0,7.719-8.586,7.731-8.586,7.731c-8.662,0-8.391-7.731-8.391-7.731c0-7.837,8.391-7.838,8.391-7.838
		C88.782,63.028,88.502,70.866,88.502,70.866z M107.451,77.873c0,8.014-7.422,7.935-7.422,7.935h-1.973v-4.5h1.223
		c3.594,0,3.237-3.711,3.237-3.711v-1.186c-1.578,2.053-4.46,1.936-4.46,1.936c-7.068,0-6.988-7.535-6.988-7.535
		c0-8.086,7.186-7.783,7.186-7.783c2.803,0,4.263,1.934,4.263,1.934v-1.42h4.935V77.873z"/>
	<circle fill="#959595" cx="99.481" cy="70.866" r="3.264"/>
	<circle fill="#959595" cx="50.824" cy="70.866" r="3.264"/>
</g>
</svg>
