<?xml version="1.0" encoding="utf-8"?>
<!-- Generator: Adobe Illustrator 16.0.0, SVG Export Plug-In . SVG Version: 6.00 Build 0)  -->
<!DOCTYPE svg PUBLIC "-//W3C//DTD SVG 1.1//EN" "http://www.w3.org/Graphics/SVG/1.1/DTD/svg11.dtd">
<svg version="1.1" id="Layer_1" xmlns="http://www.w3.org/2000/svg" xmlns:xlink="http://www.w3.org/1999/xlink" x="0px" y="0px"
	 width="150px" height="150px" viewBox="0 0 150 150" enable-background="new 0 0 150 150" xml:space="preserve">
<g>
	<path fill="#959595" d="M51.205,43.15c-5.186,0-9.391,4.203-9.391,9.395c0,5.181,4.205,9.384,9.391,9.384
		c5.191,0,9.395-4.203,9.395-9.384C60.6,47.354,56.396,43.15,51.205,43.15z"/>
	<path fill="#959595" d="M75,43.15c-5.186,0-9.389,4.203-9.389,9.395c0,5.181,4.203,9.384,9.389,9.384
		c5.189,0,9.391-4.203,9.391-9.384C84.391,47.354,80.189,43.15,75,43.15z"/>
	<path fill="#959595" d="M75,65.602c-5.186,0-9.389,4.203-9.389,9.395c0,5.19,4.203,9.395,9.389,9.395
		c5.189,0,9.391-4.204,9.391-9.395C84.391,69.805,80.189,65.602,75,65.602z"/>
	<path fill="#959595" d="M75,88.061c-5.186,0-9.389,4.203-9.389,9.395s4.203,9.395,9.389,9.395c5.189,0,9.391-4.203,9.391-9.395
		S80.189,88.061,75,88.061z"/>
	<path fill="#959595" d="M98.797,43.15c-5.188,0-9.391,4.203-9.391,9.395c0,5.181,4.203,9.384,9.391,9.384s9.389-4.203,9.389-9.384
		C108.186,47.354,103.984,43.15,98.797,43.15z"/>
</g>
</svg>
