<?xml version="1.0" encoding="utf-8"?>
<!-- Generator: Adobe Illustrator 16.0.0, SVG Export Plug-In . SVG Version: 6.00 Build 0)  -->
<!DOCTYPE svg PUBLIC "-//W3C//DTD SVG 1.1//EN" "http://www.w3.org/Graphics/SVG/1.1/DTD/svg11.dtd">
<svg version="1.1" id="Layer_1" xmlns="http://www.w3.org/2000/svg" xmlns:xlink="http://www.w3.org/1999/xlink" x="0px" y="0px"
	 width="150px" height="150px" viewBox="0 0 150 150" enable-background="new 0 0 150 150" xml:space="preserve">
<g>
	<path fill="#959595" d="M108.649,71.882L98.095,61.328V49.136c0-2.204-1.785-3.99-3.994-3.99c-2.201,0-3.988,1.787-3.988,3.99
		v4.209l-7.857-7.859c-3.887-3.883-10.641-3.877-14.516,0.007L41.351,71.882c-1.559,1.561-1.559,4.087,0,5.645
		c1.559,1.562,4.088,1.562,5.646,0l26.385-26.388c0.861-0.856,2.375-0.856,3.23-0.003l26.391,26.391
		c0.783,0.78,1.801,1.168,2.822,1.168s2.045-0.389,2.824-1.168C110.208,75.969,110.208,73.443,108.649,71.882z"/>
	<path fill="#959595" d="M76.386,58.713c-0.768-0.766-2.008-0.766-2.773,0L50.403,81.918c-0.367,0.366-0.574,0.865-0.574,1.389
		v16.924c0,3.971,3.219,7.191,7.191,7.191h11.49V89.625h12.975v17.797h11.492c3.971,0,7.191-3.221,7.191-7.191V83.307
		c0-0.523-0.207-1.022-0.574-1.389L76.386,58.713z"/>
</g>
</svg>
