<?xml version="1.0" encoding="utf-8"?>
<!-- Generator: Adobe Illustrator 16.0.0, SVG Export Plug-In . SVG Version: 6.00 Build 0)  -->
<!DOCTYPE svg PUBLIC "-//W3C//DTD SVG 1.1//EN" "http://www.w3.org/Graphics/SVG/1.1/DTD/svg11.dtd">
<svg version="1.1" id="Layer_1" xmlns="http://www.w3.org/2000/svg" xmlns:xlink="http://www.w3.org/1999/xlink" x="0px" y="0px"
	 width="150px" height="150px" viewBox="0 0 150 150" enable-background="new 0 0 150 150" xml:space="preserve">
<path fill="#959595" d="M110.242,52.72c-2.759-3.281-7.854-4.619-17.582-4.619H57.342c-9.954,0-15.134,1.425-17.884,4.916
	c-2.681,3.406-2.681,8.422-2.681,15.366v13.235c0,13.45,3.182,20.28,20.564,20.28H92.66c8.436,0,13.111-1.18,16.137-4.075
	c3.102-2.969,4.426-7.815,4.426-16.205V68.383C113.223,61.061,113.016,56.014,110.242,52.72z M85.855,76.827l-16.037,8.382
	c-0.359,0.188-0.751,0.28-1.143,0.28c-0.443,0-0.886-0.119-1.277-0.356c-0.738-0.447-1.189-1.247-1.189-2.109V66.313
	c0-0.859,0.449-1.658,1.186-2.106c0.738-0.448,1.652-0.478,2.418-0.08l16.038,8.326c0.815,0.425,1.328,1.268,1.329,2.186
	C87.181,75.558,86.67,76.4,85.855,76.827z"/>
</svg>
