<!-- Generated by IcoMoon.io -->
<svg version="1.1" xmlns="http://www.w3.org/2000/svg" width="32" height="32" viewBox="0 0 32 32">
<title>svg_kakaostory</title>
<path fill="#959595" d="M18.755 9.563h-5.509c-0.37 0-0.67 0.298-0.67 0.666v5.463c0 0.368 0.3 0.666 0.67 0.666h2.54c-0.018 0.65-0.29 1.357-0.683 1.984-0.442 0.706-1.385 1.488-1.393 1.495-0.074 0.071-0.128 0.154-0.13 0.268-0.001 0.087 0.044 0.154 0.095 0.225l1.772 1.986c0 0 0.086 0.090 0.157 0.108 0.080 0.019 0.171 0.022 0.234-0.027 3.067-2.359 3.51-5.316 3.587-6.917 0-0.009 0-5.251 0-5.251 0-0.369-0.299-0.667-0.669-0.667z"></path>
</svg>
