<!-- Generated by IcoMoon.io -->
<svg version="1.1" xmlns="http://www.w3.org/2000/svg" width="32" height="32" viewBox="0 0 32 32">
<title>svg_youtube</title>
<path fill="#959595" d="M23.518 11.247c-0.589-0.7-1.676-0.985-3.751-0.985h-7.535c-2.124 0-3.229 0.304-3.815 1.049-0.572 0.727-0.572 1.797-0.572 3.278v2.823c0 2.869 0.679 4.326 4.387 4.326h7.535c1.8 0 2.797-0.252 3.443-0.869 0.662-0.633 0.944-1.667 0.944-3.457v-2.823c0-1.562-0.044-2.639-0.636-3.341zM18.316 16.39l-3.421 1.788c-0.077 0.040-0.16 0.060-0.244 0.060-0.095 0-0.189-0.025-0.272-0.076-0.157-0.095-0.254-0.266-0.254-0.45v-3.565c0-0.183 0.096-0.354 0.253-0.449s0.352-0.102 0.516-0.017l3.421 1.776c0.174 0.091 0.283 0.271 0.284 0.466s-0.109 0.376-0.283 0.467z"></path>
</svg>
