<!-- Generated by IcoMoon.io -->
<svg version="1.1" xmlns="http://www.w3.org/2000/svg" width="32" height="32" viewBox="0 0 32 32">
<title>svg_instagram</title>
<path fill="#959595" d="M19.057 9.177h-6.114c-2.076 0-3.765 1.689-3.765 3.766v6.114c0 2.076 1.689 3.766 3.765 3.766h6.114c2.077 0 3.766-1.69 3.766-3.766v-6.114c0-2.076-1.689-3.766-3.766-3.766zM21.612 19.057c0 1.409-1.146 2.555-2.555 2.555h-6.115c-1.409 0-2.555-1.146-2.555-2.555v-6.114c0-1.409 1.146-2.555 2.555-2.555h6.114c1.409 0 2.556 1.146 2.556 2.555v6.114z"></path>
<path fill="#959595" d="M16 12.484c-1.939 0-3.516 1.577-3.516 3.516s1.577 3.516 3.516 3.516c1.939 0 3.516-1.578 3.516-3.516s-1.577-3.516-3.516-3.516zM16 18.305c-1.271 0-2.305-1.034-2.305-2.305s1.034-2.306 2.305-2.306c1.272 0 2.306 1.034 2.306 2.306s-1.034 2.305-2.306 2.305z"></path>
<path fill="#959595" d="M19.664 11.457c-0.233 0-0.462 0.095-0.627 0.26-0.166 0.164-0.261 0.394-0.261 0.628s0.095 0.463 0.261 0.628c0.164 0.165 0.394 0.26 0.627 0.26s0.463-0.095 0.628-0.26c0.165-0.165 0.26-0.395 0.26-0.628s-0.095-0.463-0.26-0.628c-0.164-0.166-0.394-0.26-0.628-0.26z"></path>
</svg>
