<!-- Generated by IcoMoon.io -->
<svg version="1.1" xmlns="http://www.w3.org/2000/svg" width="32" height="32" viewBox="0 0 32 32">
<title>svg_band</title>
<path fill="#959595" d="M11.205 15.918c0.283-0.184 0.434-0.493 0.434-0.895 0-0.557-0.383-1.155-1.222-1.155h-1.287c-0.365 0-0.62 0.26-0.62 0.633v3.015c0 0.375 0.25 0.628 0.62 0.628h1.305c0.823 0 1.314-0.472 1.314-1.261 0-0.452-0.2-0.803-0.543-0.965zM9.401 14.761h0.884c0.324 0 0.462 0.115 0.462 0.389 0 0.267-0.15 0.398-0.462 0.398h-0.884v-0.787zM10.342 17.26h-0.942v-0.893h0.953c0.227 0 0.498 0.078 0.498 0.447 0 0.304-0.162 0.447-0.508 0.447z"></path>
<path fill="#959595" d="M22.637 12.227h-13.273c-1.992 0-3.614 1.701-3.614 3.791 0 2.106 1.588 3.756 3.614 3.756h13.273c2.027 0 3.614-1.65 3.614-3.756 0-2.090-1.622-3.791-3.614-3.791zM22.551 19.247h-13.103c-1.733 0-3.141-1.448-3.141-3.229 0-1.802 1.408-3.266 3.141-3.266h13.103c1.733 0 3.142 1.464 3.142 3.266 0 1.782-1.41 3.229-3.142 3.229z"></path>
<path fill="#959595" d="M19.357 13.842c-0.248 0-0.443 0.205-0.443 0.469v2.507l-1.405-2.589c-0.137-0.246-0.365-0.375-0.624-0.375-0.4 0-0.679 0.3-0.679 0.727v3.123c0 0.256 0.207 0.474 0.449 0.474 0.245 0 0.438-0.208 0.438-0.474v-2.585l1.45 2.661c0.179 0.32 0.452 0.387 0.637 0.387 0.352 0 0.62-0.29 0.62-0.674v-3.181c0-0.265-0.195-0.469-0.443-0.469z"></path>
<path fill="#959595" d="M21.877 13.868h-0.876c-0.376 0-0.62 0.242-0.62 0.619v3.029c0 0.371 0.255 0.628 0.62 0.628h0.876c1.181 0 1.875-0.653 1.954-1.841 0.008-0.147 0.015-0.382-0.006-0.645-0.078-1.155-0.769-1.79-1.948-1.79zM22.933 16.266c-0.041 0.649-0.391 0.976-1.039 0.976h-0.622v-2.474h0.622c0.668 0 1.009 0.334 1.045 1.022 0.007 0.159 0.004 0.334-0.006 0.476z"></path>
<path fill="#959595" d="M14.752 14.415c-0.138-0.387-0.433-0.608-0.813-0.608-0.376 0-0.669 0.221-0.805 0.608l-1.088 3.119c-0.082 0.237 0.032 0.511 0.248 0.594 0.052 0.023 0.106 0.032 0.161 0.032 0.182 0 0.35-0.117 0.42-0.294l0.302-0.914h1.521l0.302 0.914c0.058 0.173 0.224 0.29 0.413 0.29 0.058 0 0.115-0.012 0.166-0.034 0.214-0.083 0.33-0.359 0.25-0.587l-1.076-3.119zM13.447 16.121l0.446-1.342c0.003-0.007 0.014-0.034 0.046-0.034 0.021 0 0.036 0.016 0.041 0.037l0.441 1.339h-0.974z"></path>
</svg>
