<!-- Generated by IcoMoon.io -->
<svg version="1.1" xmlns="http://www.w3.org/2000/svg" width="32" height="32" viewBox="0 0 32 32">
<title>svg_naverblog</title>
<path fill="#959595" d="M17.745 15.118c0 0.385-0.312 0.696-0.696 0.696s-0.696-0.312-0.696-0.696c0-0.385 0.312-0.696 0.696-0.696s0.696 0.312 0.696 0.696z"></path>
<path fill="#959595" d="M22.054 8.556h-12.108c-1.544 0-2.795 1.256-2.795 2.805v6.654c0 1.55 1.251 2.805 2.795 2.805h4.171l1.424 2.318c0 0 0.015 0.028 0.046 0.066 0.083 0.143 0.237 0.24 0.413 0.24s0.329-0.096 0.412-0.237c0.036-0.042 0.048-0.069 0.048-0.069l1.423-2.317h4.171c1.544 0 2.796-1.256 2.796-2.805v-6.654c-0.001-1.549-1.252-2.806-2.796-2.806zM11.081 16.768c-0.652 0-0.91-0.467-0.91-0.467v0.354h-1.095v-4.514h1.084v1.718c0.438-0.426 0.921-0.426 0.921-0.426 1.471 0 1.527 1.651 1.527 1.651 0 1.628-1.527 1.684-1.527 1.684zM14.495 13.735v2.919h-1.044v-2.672c0-0.921-0.495-0.899-0.495-0.899v-1.044c1.583 0 1.539 1.696 1.539 1.696zM18.88 15.118c0 1.647-1.832 1.649-1.832 1.649-1.848 0-1.79-1.649-1.79-1.649 0-1.672 1.79-1.672 1.79-1.672 1.891 0 1.832 1.672 1.832 1.672zM22.923 16.613c0 1.71-1.583 1.693-1.583 1.693h-0.421v-0.96h0.261c0.767 0 0.691-0.792 0.691-0.792v-0.253c-0.337 0.438-0.951 0.413-0.951 0.413-1.508 0-1.491-1.607-1.491-1.607 0-1.725 1.533-1.66 1.533-1.66 0.598 0 0.909 0.413 0.909 0.413v-0.303h1.053v3.057z"></path>
<path fill="#959595" d="M21.919 15.118c0 0.385-0.312 0.696-0.696 0.696s-0.696-0.312-0.696-0.696c0-0.385 0.312-0.696 0.696-0.696s0.696 0.312 0.696 0.696z"></path>
<path fill="#959595" d="M11.539 15.118c0 0.385-0.312 0.696-0.696 0.696s-0.696-0.312-0.696-0.696c0-0.385 0.312-0.696 0.696-0.696s0.696 0.312 0.696 0.696z"></path>
</svg>
