<!-- Generated by IcoMoon.io -->
<svg version="1.1" xmlns="http://www.w3.org/2000/svg" width="32" height="32" viewBox="0 0 32 32">
<title>svg_homepage</title>
<path fill="#959595" d="M23.178 15.335l-2.252-2.252v-2.601c0-0.47-0.381-0.851-0.852-0.851-0.47 0-0.851 0.381-0.851 0.851v0.898l-1.676-1.677c-0.829-0.828-2.27-0.827-3.097 0.002l-5.63 5.63c-0.333 0.333-0.333 0.872 0 1.204s0.872 0.333 1.204 0l5.629-5.629c0.184-0.183 0.507-0.183 0.689-0.001l5.63 5.63c0.167 0.166 0.384 0.249 0.602 0.249s0.436-0.083 0.602-0.249c0.333-0.332 0.333-0.871 0-1.204z"></path>
<path fill="#959595" d="M16.296 12.525c-0.164-0.163-0.428-0.163-0.592 0l-4.951 4.95c-0.078 0.078-0.122 0.185-0.122 0.296v3.61c0 0.847 0.687 1.534 1.534 1.534h2.451v-3.797h2.768v3.797h2.452c0.847 0 1.534-0.687 1.534-1.534v-3.61c0-0.112-0.044-0.218-0.122-0.296l-4.951-4.95z"></path>
</svg>
