<!-- Generated by IcoMoon.io -->
<svg version="1.1" xmlns="http://www.w3.org/2000/svg" width="32" height="32" viewBox="0 0 32 32">
<title>svg_twitter</title>
<path fill="#959595" d="M23.518 11.338c-0.553 0.245-1.147 0.412-1.771 0.486 0.637-0.381 1.124-0.987 1.356-1.705-0.597 0.353-1.257 0.61-1.96 0.749-0.563-0.6-1.363-0.974-2.251-0.974-1.703 0-3.085 1.381-3.085 3.084 0 0.241 0.027 0.477 0.080 0.703-2.563-0.129-4.836-1.357-6.358-3.223-0.266 0.455-0.417 0.985-0.417 1.55 0 1.070 0.545 2.014 1.372 2.567-0.506-0.017-0.981-0.156-1.398-0.387v0.039c0 1.494 1.064 2.741 2.474 3.024-0.259 0.070-0.531 0.108-0.813 0.108-0.199 0-0.392-0.020-0.581-0.057 0.393 1.226 1.532 2.118 2.881 2.142-1.055 0.827-2.386 1.318-3.83 1.318-0.249 0-0.495-0.015-0.736-0.042 1.365 0.876 2.986 1.388 4.728 1.388 5.674 0 8.776-4.7 8.776-8.776l-0.010-0.399c0.607-0.433 1.131-0.976 1.543-1.594z"></path>
</svg>
