<!-- Generated by IcoMoon.io -->
<svg version="1.1" xmlns="http://www.w3.org/2000/svg" width="32" height="32" viewBox="0 0 32 32">
<title>svg_kakaoplus</title>
<path fill="#959595" d="M23.131 12.329c-0.114-0.399-0.281-0.785-0.498-1.146s-0.468-0.68-0.75-0.949c-0.765-0.748-1.923-1.127-3.442-1.127h-3.222c-0.574 0-1.026 0.162-1.344 0.483-0.323 0.326-0.48 0.764-0.48 1.341v10.304c0 0.473 0.133 0.86 0.407 1.186 0.273 0.317 0.629 0.472 1.090 0.472 0.464 0 0.817-0.153 1.076-0.469 0.262-0.319 0.394-0.719 0.394-1.189v-9.554h1.871c0.564 0 1.039 0.169 1.41 0.502 0.372 0.336 0.576 0.794 0.608 1.362 0 0.622-0.182 1.118-0.541 1.48-0.388 0.388-0.926 0.577-1.643 0.577h-0.96v2.561h1.748c1.485 0 2.633-0.482 3.413-1.432 0.685-0.815 1.031-1.891 1.031-3.2 0-0.397-0.057-0.802-0.169-1.203z"></path>
<path fill="#959595" d="M9.111 15.937c-0.277 0.23-0.411 0.531-0.411 0.922 0 0.408 0.132 0.716 0.405 0.942 0.274 0.231 0.623 0.348 1.037 0.348h2.584v-2.56h-2.584c-0.412 0-0.748 0.113-1.031 0.348z"></path>
</svg>
